<svg xmlns="http://www.w3.org/2000/svg" viewBox="0 0 100 100">
  <defs>
    <linearGradient id="grad1" x1="0%" y1="0%" x2="100%" y2="100%">
      <stop offset="0%" style="stop-color:#206080;stop-opacity:1" />
      <stop offset="100%" style="stop-color:#208080;stop-opacity:1" />
    </linearGradient>
    <linearGradient id="grad2" x1="0%" y1="0%" x2="100%" y2="100%">
      <stop offset="0%" style="stop-color:#20A080;stop-opacity:1" />
      <stop offset="100%" style="stop-color:#008040;stop-opacity:1" />
    </linearGradient>
  </defs>
  <!-- Background circle -->
  <circle cx="50" cy="50" r="48" fill="#FFFFFF" stroke="#E2E8F0" stroke-width="2"/>
  <!-- AI Brain icon stylized -->
  <path d="M50 15 L65 30 L65 45 L80 50 L65 55 L65 70 L50 85 L35 70 L35 55 L20 50 L35 45 L35 30 Z" 
        fill="url(#grad1)" opacity="0.9"/>
  <!-- Inner diamond -->
  <path d="M50 25 L60 40 L60 50 L70 50 L60 50 L60 60 L50 75 L40 60 L40 50 L30 50 L40 50 L40 40 Z" 
        fill="url(#grad2)" opacity="0.9"/>
  <!-- Center dot -->
  <circle cx="50" cy="50" r="8" fill="#206080"/>
  <!-- Neural connections -->
  <circle cx="50" cy="30" r="3" fill="#208080"/>
  <circle cx="70" cy="50" r="3" fill="#208080"/>
  <circle cx="50" cy="70" r="3" fill="#208080"/>
  <circle cx="30" cy="50" r="3" fill="#208080"/>
</svg>
